<svg width="384" height="45" viewBox="0 0 384 45" fill="none" xmlns="http://www.w3.org/2000/svg">
<path d="M19.3027 26.8047H10.9629L9.08984 32H6.38281L13.9844 12.0938H16.2812L23.8965 32H21.2031L19.3027 26.8047ZM11.7559 24.6445H18.5234L15.1328 15.334L11.7559 24.6445ZM38.8125 28.5137L41.6562 17.207H44.1855L39.8789 32H37.8281L34.2324 20.7891L30.7324 32H28.6816L24.3887 17.207H26.9043L29.8164 28.2812L33.2617 17.207H35.2988L38.8125 28.5137ZM52.9082 32.2734C50.903 32.2734 49.2715 31.6172 48.0137 30.3047C46.7559 28.9831 46.127 27.2194 46.127 25.0137V24.5488C46.127 23.0814 46.4049 21.7734 46.9609 20.625C47.526 19.4674 48.3099 18.5651 49.3125 17.918C50.3242 17.2617 51.418 16.9336 52.5938 16.9336C54.5169 16.9336 56.0117 17.5671 57.0781 18.834C58.1445 20.1009 58.6777 21.9147 58.6777 24.2754V25.3281H48.6562C48.6927 26.7865 49.1165 27.9668 49.9277 28.8691C50.748 29.7624 51.7871 30.209 53.0449 30.209C53.9382 30.209 54.6947 30.0267 55.3145 29.6621C55.9342 29.2975 56.4766 28.8145 56.9414 28.2129L58.4863 29.416C57.2467 31.321 55.3874 32.2734 52.9082 32.2734ZM52.5938 19.0117C51.5729 19.0117 50.7161 19.3854 50.0234 20.1328C49.3307 20.8711 48.9023 21.9102 48.7383 23.25H56.1484V23.0586C56.0755 21.7734 55.7292 20.7799 55.1094 20.0781C54.4896 19.3672 53.651 19.0117 52.5938 19.0117ZM70.2305 28.0762C70.2305 27.3926 69.9707 26.8639 69.4512 26.4902C68.9408 26.1074 68.043 25.7793 66.7578 25.5059C65.4818 25.2324 64.4655 24.9043 63.709 24.5215C62.9616 24.1387 62.4056 23.6829 62.041 23.1543C61.6855 22.6257 61.5078 21.9967 61.5078 21.2676C61.5078 20.0553 62.0182 19.0299 63.0391 18.1914C64.069 17.3529 65.3815 16.9336 66.9766 16.9336C68.6536 16.9336 70.0117 17.3665 71.0508 18.2324C72.099 19.0983 72.623 20.2057 72.623 21.5547H70.0801C70.0801 20.862 69.7839 20.265 69.1914 19.7637C68.6081 19.2624 67.8698 19.0117 66.9766 19.0117C66.056 19.0117 65.3359 19.2122 64.8164 19.6133C64.2969 20.0143 64.0371 20.5384 64.0371 21.1855C64.0371 21.7962 64.2786 22.2565 64.7617 22.5664C65.2448 22.8763 66.1152 23.1725 67.373 23.4551C68.64 23.7376 69.6654 24.0749 70.4492 24.4668C71.2331 24.8587 71.8118 25.3327 72.1855 25.8887C72.5684 26.4355 72.7598 27.1055 72.7598 27.8984C72.7598 29.2201 72.2311 30.2819 71.1738 31.084C70.1165 31.877 68.7448 32.2734 67.0586 32.2734C65.8737 32.2734 64.8255 32.0638 63.9141 31.6445C63.0026 31.2253 62.2871 30.6419 61.7676 29.8945C61.2572 29.138 61.002 28.3223 61.002 27.4473H63.5312C63.5768 28.2949 63.9141 28.9694 64.543 29.4707C65.181 29.9629 66.0195 30.209 67.0586 30.209C68.0156 30.209 68.7812 30.0176 69.3555 29.6348C69.9388 29.2428 70.2305 28.7233 70.2305 28.0762ZM75.3848 24.4668C75.3848 23.0176 75.6673 21.7142 76.2324 20.5566C76.8066 19.3991 77.5996 18.5059 78.6113 17.877C79.6322 17.248 80.7943 16.9336 82.0977 16.9336C84.112 16.9336 85.7389 17.6309 86.9785 19.0254C88.2272 20.4199 88.8516 22.2747 88.8516 24.5898V24.7676C88.8516 26.2077 88.5736 27.502 88.0176 28.6504C87.4707 29.7897 86.6823 30.6784 85.6523 31.3164C84.6315 31.9544 83.4557 32.2734 82.125 32.2734C80.1198 32.2734 78.4928 31.5762 77.2441 30.1816C76.0046 28.7871 75.3848 26.9414 75.3848 24.6445V24.4668ZM77.9277 24.7676C77.9277 26.4082 78.306 27.7253 79.0625 28.7188C79.8281 29.7122 80.849 30.209 82.125 30.209C83.4102 30.209 84.431 29.7077 85.1875 28.7051C85.944 27.6934 86.3223 26.2806 86.3223 24.4668C86.3223 22.8444 85.9349 21.5319 85.1602 20.5293C84.3945 19.5176 83.3737 19.0117 82.0977 19.0117C80.849 19.0117 79.8418 19.5085 79.0762 20.502C78.3105 21.4954 77.9277 22.9173 77.9277 24.7676ZM94.4023 17.207L94.4707 18.8477C95.5553 17.5716 97.0182 16.9336 98.8594 16.9336C100.928 16.9336 102.337 17.7266 103.084 19.3125C103.576 18.6016 104.214 18.0273 104.998 17.5898C105.791 17.1523 106.725 16.9336 107.801 16.9336C111.046 16.9336 112.695 18.6517 112.75 22.0879V32H110.221V22.2383C110.221 21.181 109.979 20.3926 109.496 19.873C109.013 19.3444 108.202 19.0801 107.062 19.0801C106.124 19.0801 105.344 19.3626 104.725 19.9277C104.105 20.4837 103.745 21.2357 103.645 22.1836V32H101.102V22.3066C101.102 20.1556 100.049 19.0801 97.9434 19.0801C96.2845 19.0801 95.1497 19.7865 94.5391 21.1992V32H92.0098V17.207H94.4023ZM122.717 32.2734C120.712 32.2734 119.08 31.6172 117.822 30.3047C116.564 28.9831 115.936 27.2194 115.936 25.0137V24.5488C115.936 23.0814 116.214 21.7734 116.77 20.625C117.335 19.4674 118.118 18.5651 119.121 17.918C120.133 17.2617 121.227 16.9336 122.402 16.9336C124.326 16.9336 125.82 17.5671 126.887 18.834C127.953 20.1009 128.486 21.9147 128.486 24.2754V25.3281H118.465C118.501 26.7865 118.925 27.9668 119.736 28.8691C120.557 29.7624 121.596 30.209 122.854 30.209C123.747 30.209 124.503 30.0267 125.123 29.6621C125.743 29.2975 126.285 28.8145 126.75 28.2129L128.295 29.416C127.055 31.321 125.196 32.2734 122.717 32.2734ZM122.402 19.0117C121.382 19.0117 120.525 19.3854 119.832 20.1328C119.139 20.8711 118.711 21.9102 118.547 23.25H125.957V23.0586C125.884 21.7734 125.538 20.7799 124.918 20.0781C124.298 19.3672 123.46 19.0117 122.402 19.0117ZM143.826 22.7441L141.393 25.2734V32H138.768V12.0938H141.393V21.9375L150.238 12.0938H153.41L145.576 20.8848L154.025 32H150.881L143.826 22.7441ZM165.059 32C164.913 31.7083 164.794 31.1888 164.703 30.4414C163.527 31.6628 162.124 32.2734 160.492 32.2734C159.034 32.2734 157.835 31.8633 156.896 31.043C155.967 30.2135 155.502 29.1654 155.502 27.8984C155.502 26.3581 156.085 25.1641 157.252 24.3164C158.428 23.4596 160.077 23.0312 162.201 23.0312H164.662V21.8691C164.662 20.985 164.398 20.2832 163.869 19.7637C163.34 19.235 162.561 18.9707 161.531 18.9707C160.629 18.9707 159.872 19.1986 159.262 19.6543C158.651 20.11 158.346 20.6615 158.346 21.3086H155.803C155.803 20.5703 156.062 19.8594 156.582 19.1758C157.111 18.4831 157.822 17.9362 158.715 17.5352C159.617 17.1341 160.606 16.9336 161.682 16.9336C163.386 16.9336 164.721 17.362 165.688 18.2188C166.654 19.0664 167.155 20.2376 167.191 21.7324V28.541C167.191 29.8991 167.365 30.9792 167.711 31.7812V32H165.059ZM160.861 30.0723C161.654 30.0723 162.406 29.8672 163.117 29.457C163.828 29.0469 164.343 28.5137 164.662 27.8574V24.8223H162.68C159.581 24.8223 158.031 25.7292 158.031 27.543C158.031 28.3359 158.296 28.9557 158.824 29.4023C159.353 29.849 160.032 30.0723 160.861 30.0723ZM173.549 17.207L173.631 19.0664C174.761 17.6445 176.238 16.9336 178.061 16.9336C181.187 16.9336 182.764 18.6973 182.791 22.2246V32H180.262V22.2109C180.253 21.1445 180.007 20.3561 179.523 19.8457C179.049 19.3353 178.307 19.0801 177.295 19.0801C176.475 19.0801 175.755 19.2988 175.135 19.7363C174.515 20.1738 174.032 20.748 173.686 21.459V32H171.156V17.207H173.549ZM199.129 24.7676C199.129 27.028 198.609 28.8464 197.57 30.2227C196.531 31.5898 195.137 32.2734 193.387 32.2734C191.518 32.2734 190.074 31.6126 189.053 30.291L188.93 32H186.605V11H189.135V18.834C190.156 17.5671 191.564 16.9336 193.359 16.9336C195.155 16.9336 196.563 17.6126 197.584 18.9707C198.614 20.3288 199.129 22.1882 199.129 24.5488V24.7676ZM196.6 24.4805C196.6 22.7578 196.267 21.4271 195.602 20.4883C194.936 19.5495 193.979 19.0801 192.73 19.0801C191.062 19.0801 189.864 19.8548 189.135 21.4043V27.8027C189.91 29.3522 191.117 30.127 192.758 30.127C193.97 30.127 194.913 29.6576 195.588 28.7188C196.262 27.7799 196.6 26.3672 196.6 24.4805ZM211.461 32C211.315 31.7083 211.197 31.1888 211.105 30.4414C209.93 31.6628 208.526 32.2734 206.895 32.2734C205.436 32.2734 204.238 31.8633 203.299 31.043C202.369 30.2135 201.904 29.1654 201.904 27.8984C201.904 26.3581 202.488 25.1641 203.654 24.3164C204.83 23.4596 206.48 23.0312 208.604 23.0312H211.064V21.8691C211.064 20.985 210.8 20.2832 210.271 19.7637C209.743 19.235 208.964 18.9707 207.934 18.9707C207.031 18.9707 206.275 19.1986 205.664 19.6543C205.053 20.11 204.748 20.6615 204.748 21.3086H202.205C202.205 20.5703 202.465 19.8594 202.984 19.1758C203.513 18.4831 204.224 17.9362 205.117 17.5352C206.02 17.1341 207.008 16.9336 208.084 16.9336C209.788 16.9336 211.124 17.362 212.09 18.2188C213.056 19.0664 213.557 20.2376 213.594 21.7324V28.541C213.594 29.8991 213.767 30.9792 214.113 31.7812V32H211.461ZM207.264 30.0723C208.057 30.0723 208.809 29.8672 209.52 29.457C210.23 29.0469 210.745 28.5137 211.064 27.8574V24.8223H209.082C205.983 24.8223 204.434 25.7292 204.434 27.543C204.434 28.3359 204.698 28.9557 205.227 29.4023C205.755 29.849 206.434 30.0723 207.264 30.0723ZM219.951 17.207L220.033 19.0664C221.163 17.6445 222.64 16.9336 224.463 16.9336C227.589 16.9336 229.166 18.6973 229.193 22.2246V32H226.664V22.2109C226.655 21.1445 226.409 20.3561 225.926 19.8457C225.452 19.3353 224.709 19.0801 223.697 19.0801C222.877 19.0801 222.157 19.2988 221.537 19.7363C220.917 20.1738 220.434 20.748 220.088 21.459V32H217.559V17.207H219.951ZM240.35 32V12.0938H246.857C249.018 12.0938 250.64 12.5404 251.725 13.4336C252.818 14.3268 253.365 15.6484 253.365 17.3984C253.365 18.3281 253.101 19.153 252.572 19.873C252.044 20.584 251.324 21.1354 250.412 21.5273C251.488 21.8281 252.335 22.4023 252.955 23.25C253.584 24.0885 253.898 25.0911 253.898 26.2578C253.898 28.0443 253.32 29.4479 252.162 30.4688C251.005 31.4896 249.368 32 247.254 32H240.35ZM242.975 22.6895V29.8535H247.309C248.53 29.8535 249.492 29.5391 250.193 28.9102C250.904 28.2721 251.26 27.3971 251.26 26.2852C251.26 23.888 249.956 22.6895 247.35 22.6895H242.975ZM242.975 20.584H246.939C248.088 20.584 249.004 20.2969 249.688 19.7227C250.38 19.1484 250.727 18.3691 250.727 17.3848C250.727 16.291 250.408 15.498 249.77 15.0059C249.132 14.5046 248.161 14.2539 246.857 14.2539H242.975V20.584ZM256.729 24.4668C256.729 23.0176 257.011 21.7142 257.576 20.5566C258.15 19.3991 258.943 18.5059 259.955 17.877C260.976 17.248 262.138 16.9336 263.441 16.9336C265.456 16.9336 267.083 17.6309 268.322 19.0254C269.571 20.4199 270.195 22.2747 270.195 24.5898V24.7676C270.195 26.2077 269.917 27.502 269.361 28.6504C268.814 29.7897 268.026 30.6784 266.996 31.3164C265.975 31.9544 264.799 32.2734 263.469 32.2734C261.464 32.2734 259.837 31.5762 258.588 30.1816C257.348 28.7871 256.729 26.9414 256.729 24.6445V24.4668ZM259.271 24.7676C259.271 26.4082 259.65 27.7253 260.406 28.7188C261.172 29.7122 262.193 30.209 263.469 30.209C264.754 30.209 265.775 29.7077 266.531 28.7051C267.288 27.6934 267.666 26.2806 267.666 24.4668C267.666 22.8444 267.279 21.5319 266.504 20.5293C265.738 19.5176 264.717 19.0117 263.441 19.0117C262.193 19.0117 261.186 19.5085 260.42 20.502C259.654 21.4954 259.271 22.9173 259.271 24.7676ZM282.5 32C282.354 31.7083 282.236 31.1888 282.145 30.4414C280.969 31.6628 279.565 32.2734 277.934 32.2734C276.475 32.2734 275.277 31.8633 274.338 31.043C273.408 30.2135 272.943 29.1654 272.943 27.8984C272.943 26.3581 273.527 25.1641 274.693 24.3164C275.869 23.4596 277.519 23.0312 279.643 23.0312H282.104V21.8691C282.104 20.985 281.839 20.2832 281.311 19.7637C280.782 19.235 280.003 18.9707 278.973 18.9707C278.07 18.9707 277.314 19.1986 276.703 19.6543C276.092 20.11 275.787 20.6615 275.787 21.3086H273.244C273.244 20.5703 273.504 19.8594 274.023 19.1758C274.552 18.4831 275.263 17.9362 276.156 17.5352C277.059 17.1341 278.048 16.9336 279.123 16.9336C280.827 16.9336 282.163 17.362 283.129 18.2188C284.095 19.0664 284.596 20.2376 284.633 21.7324V28.541C284.633 29.8991 284.806 30.9792 285.152 31.7812V32H282.5ZM278.303 30.0723C279.096 30.0723 279.848 29.8672 280.559 29.457C281.27 29.0469 281.785 28.5137 282.104 27.8574V24.8223H280.121C277.022 24.8223 275.473 25.7292 275.473 27.543C275.473 28.3359 275.737 28.9557 276.266 29.4023C276.794 29.849 277.473 30.0723 278.303 30.0723ZM295.748 19.4766C295.365 19.4128 294.951 19.3809 294.504 19.3809C292.845 19.3809 291.719 20.0872 291.127 21.5V32H288.598V17.207H291.059L291.1 18.916C291.929 17.5944 293.105 16.9336 294.627 16.9336C295.119 16.9336 295.493 16.9974 295.748 17.125V19.4766ZM297.197 24.4805C297.197 22.2109 297.735 20.388 298.811 19.0117C299.886 17.6263 301.294 16.9336 303.035 16.9336C304.767 16.9336 306.139 17.526 307.15 18.7109V11H309.68V32H307.355L307.232 30.4141C306.221 31.6536 304.812 32.2734 303.008 32.2734C301.294 32.2734 299.895 31.5716 298.811 30.168C297.735 28.7643 297.197 26.9323 297.197 24.6719V24.4805ZM299.727 24.7676C299.727 26.4447 300.073 27.7572 300.766 28.7051C301.458 29.653 302.415 30.127 303.637 30.127C305.241 30.127 306.412 29.4069 307.15 27.9668V21.1719C306.394 19.7773 305.232 19.0801 303.664 19.0801C302.424 19.0801 301.458 19.5586 300.766 20.5156C300.073 21.4727 299.727 22.89 299.727 24.7676Z" fill="white"/>
</svg>
